<?xml version="1.0" encoding="utf-8"?>
<svg version="1.1" id="Layer_1" xmlns="http://www.w3.org/2000/svg" x="0px" y="0px" width="100%" viewBox="329.171 116.654 586.338 343.734" enable-background="new 0 0 1024 816">
  <path fill="#000000" opacity="1.000000" stroke="none" d="M 596.964 167.631 C 608.389 182.599 615.477 199.481 621.589 216.843 C 627.538 233.74 631.74 251.14 636.394 268.411 C 644.292 297.726 652.172 327.059 665.515 354.525 C 671.056 365.931 677.888 376.414 687.63 384.832 C 699.633 395.204 718.917 395.123 730.838 384.031 C 739.978 375.528 746.195 364.983 752.511 354.452 C 759.826 342.254 767.038 329.983 776.949 319.584 C 787.071 308.961 799.045 301.395 813.206 297.488 C 818.106 296.136 823.149 295.16 828.263 295.138 C 845.316 295.063 862.373 295.01 879.426 295.156 C 884.811 295.202 890.379 295.794 892.82 301.777 C 895.867 309.247 895.875 316.944 892.376 324.195 C 889.452 330.256 883.077 330.21 877.583 330.39 C 865.756 330.777 853.906 330.452 842.066 330.533 C 837.519 330.565 832.986 330.42 828.419 330.998 C 815.614 332.617 806.589 339.831 799.125 349.737 C 791.452 359.919 785.479 371.162 778.684 381.89 C 769.358 396.611 758.638 410.046 743.535 419.304 C 730.711 427.165 716.757 430.353 701.767 428.71 C 680.244 426.352 664.008 414.874 650.626 398.7 C 636.572 381.714 627.841 361.869 620.375 341.379 C 614.208 324.453 609.253 307.146 604.472 289.8 C 600.009 273.607 596.052 257.258 590.902 241.272 C 585.321 223.949 580.104 206.379 569.493 191.191 C 564.352 183.832 558.299 177.571 548.823 176.041 C 539.711 174.57 531.828 177.009 525.363 183.597 C 519.939 189.125 516.724 196.04 513.691 203.031 C 505.687 221.476 499.786 240.666 493.574 259.75 C 488.797 274.425 483.525 288.864 474.241 301.51 C 462.816 317.067 447.852 326.354 428.536 328.312 C 415.659 329.617 402.743 330.057 389.893 328.353 C 382.267 327.342 379.637 323.805 379.081 316.086 C 378.831 312.615 378.576 309.206 379.075 305.715 C 380.131 298.339 384.41 294.534 391.838 293.825 C 400.082 293.04 408.327 292.961 416.563 293.191 C 433.204 293.656 443.97 285.535 450.722 270.893 C 456.014 259.417 459.528 247.334 463.26 235.328 C 469.024 216.781 474.231 198.02 483.493 180.801 C 491.291 166.302 501.438 153.837 516.413 146.143 C 535.306 136.436 554.227 137.191 572.983 146.623 C 582.695 151.507 590.336 158.832 596.964 167.631 Z" style=""/>
  <path fill="#000000" opacity="1.000000" stroke="none" d="M 1088.68 295.803 C 1097.01 293.962 1105.12 295.132 1113.2 294.881 C 1115.78 294.802 1115.98 296.733 1115.46 298.9 C 1111.72 314.681 1108.06 330.483 1104.31 346.263 C 1098.44 370.997 1092.4 395.693 1086.72 420.471 C 1085.66 425.095 1083.62 426.603 1079.06 426.341 C 1072.99 425.993 1066.87 426.131 1060.79 426.3 C 1057.74 426.384 1056.19 425.158 1055.42 422.302 C 1049.86 401.511 1044.35 380.703 1037.77 360.198 C 1035.35 352.656 1033.2 345.027 1030.6 336.329 C 1026.36 349.957 1022.21 362.457 1018.61 375.112 C 1014.17 390.702 1010.16 406.414 1006.03 422.092 C 1005.34 424.715 1004.05 426.164 1001.19 426.133 C 994.316 426.058 987.441 426.065 980.566 426.085 C 977.172 426.095 975.693 424.398 974.949 421.117 C 968.974 394.804 962.868 368.521 956.76 342.239 C 953.407 327.809 950.037 313.384 946.524 298.993 C 945.704 295.638 946.969 294.774 949.994 294.802 C 957.024 294.863 964.058 294.909 971.085 294.744 C 974.279 294.669 975.54 296.175 976.042 299.063 C 979.887 321.189 983.678 343.324 987.734 365.412 C 988.823 371.341 990.147 377.241 991.609 383.245 C 994.381 373.431 997.104 363.602 999.939 353.806 C 1005.27 335.381 1010.71 316.984 1016 298.545 C 1016.78 295.817 1018.25 294.729 1021.02 294.765 C 1027.43 294.85 1033.83 294.818 1040.24 294.759 C 1042.81 294.735 1044.13 295.779 1044.85 298.36 C 1052.29 325.281 1060.3 352.036 1068.6 378.705 C 1069.06 380.177 1069.3 381.717 1070.47 383.383 C 1071.71 377.652 1073.05 371.939 1074.19 366.187 C 1078.75 343.247 1083.25 320.295 1087.79 297.352 C 1087.88 296.909 1088.19 296.511 1088.68 295.803 Z" style=""/>
  <path fill="#000000" opacity="1.000000" stroke="none" d="M 972.177 226.05 C 974.107 230.89 975.459 235.528 978.001 239.731 C 989.009 257.932 1020.93 258.246 1031.17 238.503 C 1032.1 236.701 1033.09 234.928 1033.96 233.096 C 1037.18 226.327 1037.18 226.248 1044.45 227.685 C 1049.65 228.712 1054.81 229.963 1059.98 231.121 C 1062.95 231.786 1064.1 233.209 1063.12 236.501 C 1056.36 259.269 1036.85 274.801 1013.14 276.886 C 999.238 278.109 986.056 276.332 973.496 270.289 C 956.949 262.328 948.625 248.012 944.204 231.109 C 939.621 213.586 939.966 196.095 947.463 179.316 C 958.085 155.544 976.638 143.684 1002.68 143.026 C 1020.88 142.567 1036.92 147.443 1049.8 160.764 C 1055.66 166.83 1059.34 174.226 1061.84 182.228 C 1062.63 184.74 1062.08 186.13 1059.13 186.915 C 1052.62 188.647 1045.9 189.117 1039.38 190.667 C 1036.27 191.407 1035.32 189.386 1034.31 187.1 C 1030.33 178.041 1023.94 171.341 1014.19 168.905 C 998.44 164.972 983.354 169.702 976.071 185.348 C 970.762 196.753 969.787 208.716 971.546 221.025 C 971.767 222.569 971.907 224.124 972.177 226.05 Z" style=""/>
  <path fill="#000000" opacity="1.000000" stroke="none" d="M 877.448 274.637 C 874.609 277.891 870.996 279.314 867.095 279.308 C 856.001 279.293 844.891 279.946 833.812 278.884 C 827.094 278.239 822.774 273.885 821.49 267.236 C 820.292 261.034 820.195 254.951 821.472 248.744 C 822.715 242.705 826.95 238.494 833.089 237.779 C 835.757 237.468 838.428 237.241 841.109 237.412 C 849.812 237.966 858.527 237.634 867.236 237.786 C 875.513 237.93 881.059 243.466 881.042 251.784 C 881.031 257.044 881.335 262.314 880.79 267.563 C 880.515 270.214 879.348 272.497 877.448 274.637 Z" style=""/>
  <path fill="#000000" opacity="1.000000" stroke="none" d="M 1198.4 409.272 C 1198.66 414.09 1198.91 418.448 1199.16 422.806 C 1199.35 425.943 1197.95 427.401 1194.73 427.306 C 1190.83 427.192 1186.91 427.117 1183.02 427.342 C 1178.95 427.575 1175.77 427.036 1176.28 421.592 C 1162.97 430.923 1148.92 430.722 1134.87 425.887 C 1121.62 421.332 1115.82 411.052 1116.38 395.674 C 1116.77 384.88 1125.26 374.532 1136.86 370.889 C 1147.55 367.531 1158.33 367.392 1169.14 370.375 C 1170.04 370.624 1170.94 370.885 1171.85 371.084 C 1172.13 371.144 1172.45 371.014 1173.32 370.891 C 1173.76 366.055 1173.27 361.204 1172.1 356.409 C 1171.89 355.556 1171.22 354.745 1170.6 354.072 C 1164.04 346.997 1146.41 350.058 1143.34 359.064 C 1141.93 363.196 1140.29 364.4 1136.02 363.109 C 1131.26 361.673 1126.29 360.904 1121.37 360.128 C 1118.05 359.605 1117.28 357.86 1117.84 354.879 C 1120.1 342.631 1126.34 333.637 1138.99 330.812 C 1153.19 327.642 1167.52 326.912 1181.29 332.784 C 1191.12 336.973 1196.5 344.682 1197.73 355.452 C 1198.76 364.501 1198.17 373.542 1198.28 382.586 C 1198.39 391.327 1198.36 400.07 1198.4 409.272 M 1142.71 394.968 C 1141.64 399.274 1141.47 403.341 1145.85 406.101 C 1152.06 410.015 1164.91 408.494 1169.84 403.189 C 1172.45 400.386 1173.53 396.973 1172.36 393.277 C 1171.32 389.977 1168.25 389.348 1165.27 388.867 C 1160.62 388.117 1155.96 388.46 1151.33 388.956 C 1147.75 389.341 1144.88 391.078 1142.71 394.968 Z" style=""/>
  <path fill="#000000" opacity="1.000000" stroke="none" d="M 1326.91 387.96 C 1320.95 388.192 1320.26 389.258 1322.27 394.498 C 1325.58 403.146 1332.22 406.713 1343 405.889 C 1349.61 405.384 1355.53 403.212 1360.55 398.961 C 1362.92 396.961 1365.06 396.705 1367.82 397.849 C 1371.13 399.218 1374.52 400.5 1377.99 401.363 C 1382.49 402.484 1382.45 404.66 1380.45 408.146 C 1372.86 421.422 1360.79 427.273 1346.23 428.818 C 1327.18 430.839 1308.48 421.805 1301.1 406.607 C 1293.96 391.92 1293.91 376.392 1297.61 360.816 C 1302.37 340.805 1315.48 329.39 1335.04 327.74 C 1354.87 326.066 1371.74 336.224 1379.69 354.398 C 1383.69 363.536 1385.78 372.986 1386.19 382.958 C 1386.37 387.093 1385 388.053 1381.23 388.026 C 1363.27 387.897 1345.31 387.962 1326.91 387.96 M 1358.22 363.926 C 1356.53 359.339 1354.47 355.021 1349.89 352.541 C 1340.53 347.474 1324.97 349.759 1322 367.748 C 1333.69 367.748 1345.28 367.791 1356.86 367.709 C 1358.99 367.694 1358.64 366.008 1358.22 363.926 Z" style=""/>
  <path fill="#000000" opacity="1.000000" stroke="none" d="M 1152.77 265.403 C 1128.5 284.552 1091.57 279.221 1076.44 254.213 C 1062.44 231.057 1068.73 191.638 1100.23 181.085 C 1135.3 169.338 1170.82 191.059 1168.46 233.124 C 1167.76 245.615 1162.68 256.672 1152.77 265.403 M 1140.93 233.168 C 1141.36 228.33 1141.25 223.541 1139.97 218.803 C 1137.32 208.936 1130 202.07 1121.41 201.486 C 1111.75 200.829 1103.82 206.118 1099.48 215.751 C 1096.8 221.724 1096.85 227.994 1097.67 234.116 C 1098.87 242.994 1103.38 250.352 1112.2 253.125 C 1120.56 255.755 1128.61 254.065 1134.67 246.916 C 1137.85 243.162 1139.8 238.779 1140.93 233.168 Z" style=""/>
  <path fill="#000000" opacity="1.000000" stroke="none" d="M 750.976 277.975 C 743.313 275.874 739.97 271.413 739.606 262.939 C 739.402 258.154 739.697 253.374 740.228 248.624 C 740.824 243.288 744.624 239.169 749.984 237.831 C 752.771 237.136 755.592 236.722 758.494 236.749 C 765.477 236.817 772.461 236.807 779.444 236.753 C 794.51 236.635 797.898 245.344 798.117 256.695 C 798.191 260.461 797.738 264.31 796.739 268.048 C 795.179 273.889 791.432 277.189 785.564 278.125 C 781.78 278.728 777.953 278.842 774.121 278.759 C 766.481 278.591 758.817 279.257 750.976 277.975 Z" style=""/>
  <path fill="#000000" opacity="1.000000" stroke="none" d="M 1604.72 266.892 C 1590.38 255.591 1585.11 240.733 1586.38 223.341 C 1587.5 208.166 1593.29 195.219 1606.27 186.4 C 1630.95 169.624 1676.77 176.362 1683.93 218.857 C 1688.23 244.38 1678.38 265.05 1656.3 273.301 C 1638.46 279.97 1621.03 277.937 1604.72 266.892 M 1626.61 252.184 C 1637.55 256.799 1648.62 253.04 1654.11 242.637 C 1659.28 232.812 1658.9 222.729 1654.13 212.986 C 1647.72 199.941 1631.5 197.736 1621.15 207.978 C 1610.87 218.155 1610.37 243.191 1626.61 252.184 Z" style=""/>
  <path fill="#000000" opacity="1.000000" stroke="none" d="M 1739.89 276.464 C 1727.4 277.634 1716.06 276.228 1706.84 267.241 C 1698.72 259.328 1695.55 249.338 1695.31 238.432 C 1694.91 219.85 1695.01 201.258 1694.8 182.671 C 1694.78 180.297 1695.49 179.114 1697.91 179.111 C 1704.46 179.101 1711.02 179.212 1717.57 179.002 C 1721.52 178.875 1722.73 180.574 1722.69 184.322 C 1722.56 199.633 1722.63 214.944 1722.61 230.256 C 1722.61 234.164 1722.79 238.023 1723.6 241.892 C 1725.58 251.274 1730.58 254.614 1741.98 253.826 C 1749.9 253.279 1756.04 247.125 1756.08 239.059 C 1756.16 220.937 1756.14 202.811 1755.78 184.694 C 1755.69 180.588 1756.9 179.446 1760.7 179.56 C 1766.64 179.737 1772.58 179.652 1778.51 179.535 C 1781.94 179.467 1783.11 180.819 1783 184.331 C 1782.37 203.851 1783.13 223.375 1783.05 242.896 C 1783.01 251.955 1783.22 260.995 1783.53 270.037 C 1783.67 274.027 1782.25 275.864 1778.14 275.661 C 1774.56 275.484 1770.94 275.366 1767.37 275.666 C 1762.64 276.064 1760.72 274.029 1760.92 269.472 C 1760.97 268.246 1760.78 267.008 1760.6 264.392 C 1754.89 271.438 1747.99 274.674 1739.89 276.464 Z" style=""/>
  <path fill="#000000" opacity="1.000000" stroke="none" d="M 1418.69 206.964 C 1415.65 210.331 1415.09 214.091 1415.1 218.111 C 1415.15 235.139 1415.13 252.168 1415.12 269.196 C 1415.11 274.815 1414.59 275.35 1408.98 275.41 C 1403.52 275.467 1398.05 275.46 1392.58 275.451 C 1389.61 275.447 1387.81 274.221 1388.02 270.938 C 1389.33 250.335 1387.96 229.736 1387.91 209.135 C 1387.9 200.855 1387.89 192.573 1387.67 184.298 C 1387.58 180.922 1388.69 179.387 1392.21 179.536 C 1396.27 179.708 1400.33 179.567 1404.39 179.566 C 1409.78 179.564 1410.59 180.399 1410.53 185.835 C 1410.52 187.062 1410.53 188.289 1410.53 189.561 C 1412.77 189.934 1413.41 188.183 1414.42 187.22 C 1431.65 170.911 1464.58 178.328 1472.66 200.456 C 1474.55 205.619 1474.97 211.131 1475 216.602 C 1475.09 233.942 1475.1 251.283 1475.08 268.624 C 1475.07 275.172 1474.66 275.493 1468.16 275.478 C 1463.01 275.466 1457.85 275.417 1452.7 275.504 C 1449.62 275.555 1448.22 274.488 1448.21 271.125 C 1448.14 254.887 1447.92 238.648 1447.62 222.412 C 1447.56 218.994 1447.27 215.516 1446.53 212.188 C 1444.8 204.391 1441 201.573 1432.95 201.469 C 1427.58 201.4 1422.74 202.655 1418.69 206.964 Z" style=""/>
  <path fill="#000000" opacity="1.000000" stroke="none" d="M 1515.64 210.817 C 1515.64 218.939 1515.66 226.593 1515.63 234.246 C 1515.62 236.916 1515.89 239.503 1516.62 242.101 C 1519.35 251.822 1524.11 254.869 1535.27 253.822 C 1543.06 253.09 1548.72 247.497 1548.88 239.135 C 1549.15 226.025 1548.79 212.903 1548.64 199.787 C 1548.58 194.637 1548.39 189.488 1548.2 184.341 C 1548.07 181.037 1549.42 179.462 1552.88 179.52 C 1558.66 179.615 1564.45 179.72 1570.21 179.34 C 1574.36 179.066 1575.7 180.46 1575.68 184.587 C 1575.55 210.357 1575.62 236.128 1575.63 261.9 C 1575.63 265.023 1575.54 268.149 1575.63 271.27 C 1575.71 274.233 1574.37 275.595 1571.44 275.565 C 1567.69 275.527 1563.93 275.395 1560.19 275.588 C 1556.3 275.788 1554.27 274.443 1554.44 270.279 C 1554.5 268.775 1553.97 267.246 1553.66 265.469 C 1551.38 265.973 1550.6 267.864 1549.28 268.992 C 1532.01 283.771 1494.97 278.626 1489.47 247.515 C 1487.45 236.105 1488.54 224.809 1488.02 213.471 C 1487.57 203.496 1488.56 193.484 1487.36 183.521 C 1486.97 180.255 1488.59 178.958 1491.7 178.978 C 1498.11 179.02 1504.51 179.099 1510.91 178.958 C 1514.66 178.875 1515.75 180.605 1515.69 184.109 C 1515.54 192.853 1515.64 201.602 1515.64 210.817 Z" style=""/>
  <path fill="#000000" opacity="1.000000" stroke="none" d="M 1178.58 181.207 C 1185.22 178.413 1191.9 179.825 1198.49 179.976 C 1200.34 180.018 1200.62 182.001 1200.63 183.635 C 1200.66 185.747 1200.64 187.86 1200.64 191.475 C 1207.01 184.259 1213.48 180.337 1221.55 179.216 C 1228.15 178.3 1234.69 178.617 1241.07 180.188 C 1255.02 183.624 1263.59 194.13 1265.17 208.476 C 1266.16 217.354 1266.16 226.228 1266.17 235.12 C 1266.18 246.672 1266.06 258.226 1266.26 269.774 C 1266.33 273.971 1264.94 275.79 1260.61 275.603 C 1255.31 275.376 1249.99 275.424 1244.69 275.595 C 1240.92 275.717 1239.45 274.333 1239.43 270.414 C 1239.36 253.718 1239.02 237.023 1238.78 220.327 C 1238.76 219.39 1238.81 218.447 1238.71 217.519 C 1238.09 211.504 1237.31 205.402 1230.65 202.876 C 1223.43 200.135 1216.47 200.926 1210.42 205.981 C 1206.08 209.603 1205.34 214.789 1205.32 220.032 C 1205.24 236.579 1205.13 253.129 1205.38 269.672 C 1205.44 274.225 1203.97 275.867 1199.5 275.64 C 1194.52 275.386 1189.5 275.351 1184.52 275.645 C 1179.88 275.918 1178.71 273.971 1178.74 269.577 C 1178.89 244.445 1178.79 219.312 1178.74 194.179 C 1178.73 189.975 1178.53 185.771 1178.58 181.207 Z" style=""/>
  <path fill="#000000" opacity="1.000000" stroke="none" d="M 1826.99 198.729 C 1824.13 199.731 1822.91 201.395 1822.96 204.152 C 1823.01 206.928 1824.55 208.406 1826.81 209.475 C 1830.51 211.224 1834.48 212.108 1838.44 212.985 C 1844.69 214.372 1850.79 216.215 1856.73 218.671 C 1869.81 224.084 1875.87 233.169 1875.6 247.338 C 1875.38 258.833 1867.4 269.456 1855.45 273.469 C 1841.39 278.189 1827.21 278.31 1813.26 273.04 C 1803.47 269.344 1797.11 262.189 1793.67 252.307 C 1792.72 249.571 1793.44 248.128 1796.13 247.462 C 1801.43 246.146 1806.73 244.846 1812.03 243.517 C 1814.59 242.874 1816.06 243.886 1817.19 246.238 C 1821.28 254.747 1837.75 258.791 1845.36 253.263 C 1849.95 249.929 1849.22 242.505 1843.87 239.544 C 1839.33 237.035 1834.27 235.888 1829.32 234.481 C 1823.63 232.862 1817.84 231.57 1812.4 229.13 C 1799.97 223.558 1794.21 214.059 1795.62 201.323 C 1796.71 191.477 1806.21 182.306 1817.65 179.668 C 1828.05 177.269 1838.41 177.268 1848.73 179.724 C 1860.61 182.554 1868.48 189.925 1872.25 201.593 C 1873.24 204.646 1872.71 206.676 1869.06 207.363 C 1864.32 208.256 1859.64 209.488 1854.94 210.609 C 1852.78 211.123 1850.6 211.188 1849.9 208.676 C 1847.22 199.034 1839.82 197.813 1831.52 198.092 C 1830.13 198.138 1828.74 198.426 1826.99 198.729 Z" style=""/>
  <path fill="#000000" opacity="1.000000" stroke="none" d="M 677.356 237.502 C 689.591 230.864 703.087 233.481 710.632 243.803 C 720.417 257.193 713.002 275.779 696.883 279.742 C 686.549 282.284 673.959 276.592 669.405 268.278 C 663.462 257.426 666.51 244.377 677.356 237.502 Z" style=""/>
  <path fill="#000000" opacity="1.000000" stroke="none" d="M 1258.91 362.285 C 1261.74 352.809 1264.65 343.747 1267.17 334.576 C 1268.24 330.656 1269.8 328.844 1274.28 329.227 C 1280.01 329.717 1285.82 329.39 1291.59 329.132 C 1295.03 328.978 1296.33 329.82 1295.01 333.401 C 1283.99 363.256 1272.99 393.113 1262.13 423.025 C 1260.97 426.214 1259.33 427.498 1256 427.377 C 1250.85 427.19 1245.68 427.156 1240.54 427.363 C 1236.96 427.507 1235.31 426.002 1234.13 422.679 C 1224.72 396.215 1215.14 369.812 1205.6 343.394 C 1204.38 340.018 1203.18 336.632 1201.84 333.305 C 1200.73 330.558 1201.76 329.494 1204.47 329.492 C 1211.34 329.488 1218.21 329.531 1225.09 329.462 C 1227.98 329.433 1229.12 330.973 1229.87 333.558 C 1235.56 353.183 1241.36 372.776 1247.12 392.378 C 1247.46 393.52 1247.47 394.82 1248.99 395.866 C 1252.31 384.679 1255.58 373.667 1258.91 362.285 Z" style=""/>
  <path fill="#000000" opacity="1.000000" stroke="none" d="M 1300.71 156.264 C 1313.26 156.46 1312.33 154.346 1312.2 167.643 C 1312.08 179.53 1312.07 179.482 1323.84 179.597 C 1334.86 179.705 1334.44 177.376 1334.56 190.029 C 1334.67 202.453 1336.66 201.353 1323.62 201.477 C 1312.05 201.587 1311.93 201.548 1312.15 213.247 C 1312.35 223.383 1311.35 233.562 1312.76 243.645 C 1313.7 250.407 1316.04 252.139 1322.82 251.916 C 1325.46 251.83 1328.08 251.315 1330.71 251.024 C 1333.4 250.728 1334.85 251.738 1334.79 254.657 C 1334.67 260.12 1334.66 265.586 1334.63 271.051 C 1334.62 273.119 1334.04 274.873 1331.75 275.234 C 1322.12 276.753 1312.55 277.366 1303.16 273.689 C 1289.43 268.315 1286.1 256.806 1285.73 243.835 C 1285.4 231.822 1285.69 219.791 1285.68 207.768 C 1285.68 201.616 1285.66 201.616 1279.35 201.6 C 1270.56 201.579 1270.56 201.579 1270.67 192.959 C 1270.71 189.68 1270.78 186.401 1270.78 183.123 C 1270.77 180.034 1272.11 178.739 1275.35 178.694 C 1284.87 178.561 1284.87 178.45 1285.78 169.07 C 1285.89 167.984 1286.12 166.909 1286.22 165.822 C 1287.1 156.285 1287.1 156.284 1296.97 156.269 C 1298.06 156.268 1299.16 156.266 1300.71 156.264 Z" style=""/>
  <path fill="#000000" opacity="1.000000" stroke="none" d="M 1344.86 191.166 C 1344.86 178.313 1343.86 179.782 1355.93 179.693 C 1359.83 179.664 1363.73 179.502 1367.63 179.31 C 1370.37 179.175 1371.64 180.298 1371.65 183.118 C 1371.74 211.363 1371.9 239.608 1371.98 267.853 C 1372 275.154 1371.67 275.377 1364.24 275.408 C 1359.24 275.428 1354.25 275.384 1349.25 275.467 C 1346.27 275.517 1345.22 274.265 1345.21 271.221 C 1345.17 244.69 1344.99 218.159 1344.86 191.166 Z" style=""/>
  <path fill="#000000" opacity="1.000000" stroke="none" d="M 1346.49 170.676 C 1338.18 160.06 1341.56 146.791 1353.22 143.02 C 1360.41 140.695 1367.91 143.451 1371.89 149.878 C 1375.8 156.184 1374.98 164.946 1370 170.308 C 1365.05 175.621 1356.57 176.945 1350.18 173.338 C 1348.97 172.652 1347.89 171.725 1346.49 170.676 Z" style=""/>
  <path fill="#000000" opacity="1.000000" stroke="none" d="M 574.791 356.978 C 585.903 350.949 598.16 353.325 605.012 362.7 C 613.899 374.86 607.163 391.74 592.526 395.34 C 583.139 397.648 571.705 392.479 567.57 384.928 C 562.172 375.072 564.94 363.222 574.791 356.978 Z" style="transform-origin: 586.928px 374.78px 0px;" transform="matrix(-1, 0, 0, -1, 0, 0)"/>
  <path fill="#000000" opacity="1.000000" stroke="none" d="M 364.973 392.142 C 358.013 390.234 354.978 386.184 354.647 378.487 C 354.46 374.141 354.73 369.799 355.211 365.485 C 355.752 360.64 359.204 356.898 364.072 355.685 C 366.602 355.052 369.165 354.675 371.802 354.701 C 378.143 354.761 384.486 354.752 390.826 354.703 C 404.511 354.597 407.588 362.506 407.787 372.815 C 407.853 376.236 407.443 379.731 406.535 383.126 C 405.118 388.431 401.715 391.428 396.386 392.278 C 392.949 392.825 389.474 392.93 385.993 392.853 C 379.055 392.701 372.094 393.307 364.973 392.142 Z" style="transform-origin: 381.191px 373.789px 0px;" transform="matrix(-1, 0, 0, -1, 0, 0)"/>
  <path fill="#000000" opacity="1.000000" stroke="none" d="M 437.634 356.587 C 448.745 350.558 461.003 352.934 467.853 362.309 C 476.741 374.47 470.006 391.349 455.368 394.95 C 445.981 397.258 434.547 392.089 430.411 384.538 C 425.014 374.682 427.782 362.83 437.634 356.587 Z" style="transform-origin: 449.769px 374.39px 0px;" transform="matrix(-1, 0, 0, -1, 0, 0)"/>
  <path fill="#000000" opacity="1.000000" stroke="none" d="M 545.669 390.902 C 542.831 394.157 539.219 395.579 535.317 395.574 C 524.223 395.559 513.113 396.212 502.035 395.15 C 495.316 394.505 490.996 390.151 489.712 383.502 C 488.514 377.3 488.417 371.216 489.694 365.009 C 490.937 358.97 495.172 354.759 501.311 354.045 C 503.979 353.734 506.65 353.507 509.331 353.677 C 518.035 354.232 526.75 353.9 535.458 354.052 C 543.735 354.195 549.281 359.732 549.264 368.048 C 549.254 373.309 549.557 378.579 549.012 383.828 C 548.738 386.48 547.57 388.762 545.669 390.902 Z" style=""/>
</svg>